HIERARCHY
ROOT Hips
{
	OFFSET 0.000000 0.000000 0.000000 
	CHANNELS 6 Xposition Yposition Zposition Zrotation Yrotation Xrotation
	JOINT LeftUpLeg
	{
		OFFSET 1.363060 -1.794630 0.839290 
		CHANNELS 3 Zrotation Yrotation Xrotation
		JOINT LeftLeg
		{
			OFFSET 2.448110 -6.726130 0.000000 
			CHANNELS 3 Zrotation Yrotation Xrotation
			JOINT LeftFoot
			{
				OFFSET 2.562200 -7.039590 0.000000 
				CHANNELS 3 Zrotation Yrotation Xrotation
				JOINT LeftToeBase
				{
					OFFSET 0.157640 -0.433110 2.322550 
					CHANNELS 3 Zrotation Yrotation Xrotation
					End Site
					{
						OFFSET 0.000000 0.000000 0.000000 
					}
				}
			}
		}
	}
	JOINT RightUpLeg
	{
		OFFSET -1.305520 -1.794630 0.839290 
		CHANNELS 3 Zrotation Yrotation Xrotation
		JOINT RightLeg
		{
			OFFSET -2.542530 -6.985550 0.000000 
			CHANNELS 3 Zrotation Yrotation Xrotation
			JOINT RightFoot
			{
				OFFSET -2.568260 -7.056230 0.000000 
				CHANNELS 3 Zrotation Yrotation Xrotation
				JOINT RightToeBase
				{
					OFFSET -0.164730 -0.452590 2.363150 
					CHANNELS 3 Zrotation Yrotation Xrotation
					End Site
					{
						OFFSET 0.000000 0.000000 0.000000 
					}
				}
			}
		}
	}
	JOINT Spine
	{
		OFFSET 0.028270 2.035590 -0.193380 
		CHANNELS 3 Zrotation Yrotation Xrotation
		JOINT Spine1
		{
			OFFSET 0.056720 2.048850 -0.042750 
			CHANNELS 3 Zrotation Yrotation Xrotation
			JOINT Neck1
			{
				OFFSET -0.054170 1.746240 0.172020 
				CHANNELS 3 Zrotation Yrotation Xrotation
				JOINT Head
				{
					OFFSET 0.104070 1.761360 -0.123970 
					CHANNELS 3 Zrotation Yrotation Xrotation
					End Site
					{
						OFFSET 0.000000 0.000000 0.000000 
					}
				}
			}
			JOINT LeftArm
			{
				OFFSET 3.362410 1.200890 -0.311210 
				CHANNELS 3 Zrotation Yrotation Xrotation
				JOINT LeftForeArm
				{
					OFFSET 4.983000 -0.000000 -0.000000 
					CHANNELS 3 Zrotation Yrotation Xrotation
					JOINT LeftHand
					{
						OFFSET 3.483560 -0.000000 -0.000000 
						CHANNELS 3 Zrotation Yrotation Xrotation
						JOINT LeftHandIndex1
						{
							OFFSET 0.715260 -0.000000 -0.000000 
							CHANNELS 3 Zrotation Yrotation Xrotation
							End Site
							{
								OFFSET 0.000000 0.000000 0.000000 
							}
						}
					}
				}
			}
			JOINT RightArm
			{
				OFFSET -3.136600 1.374050 -0.404650 
				CHANNELS 3 Zrotation Yrotation Xrotation
				JOINT RightForeArm
				{
					OFFSET -5.241900 -0.000000 -0.000000 
					CHANNELS 3 Zrotation Yrotation Xrotation
					JOINT RightHand
					{
						OFFSET -3.444170 -0.000000 -0.000000 
						CHANNELS 3 Zrotation Yrotation Xrotation
						JOINT RightHandIndex1
						{
							OFFSET -0.622530 -0.000000 -0.000000 
							CHANNELS 3 Zrotation Yrotation Xrotation
							End Site
							{
								OFFSET 0.000000 0.000000 0.000000 
							}
						}
					}
				}
			}
		}
	}
}
MOTION
Frames: 9
Frame Time: 0.041667
-29.670682 17.466616 1.746713 49.371599 84.247498 43.384285 -18.128552 4.060549 16.170167 -1.933867 -0.421119 -0.883064 -1.208282 13.149004 -12.282676 0.511600 -4.584800 -12.728200 6.470437 -12.112939 22.304135 -0.568267 -1.605702 0.757064 -0.393384 2.340358 -12.105064 -0.074400 -1.759700 4.841900 -0.052222 2.461043 -2.285516 -2.060915 1.067554 2.731788 4.348912 2.236645 8.500455 -1.320100 1.365200 10.753200 -90.683698 -1.248175 42.302095 10.251773 -19.047787 -1.931104 -0.095301 0.701900 13.129099 -7.125000 0.000000 0.000000 90.230922 -2.537028 40.706925 -17.778041 32.312568 -4.503465 0.494134 -2.868935 3.965609 7.125000 0.000000 0.000000 
-29.671194 17.467844 1.744768 50.132256 84.144263 44.153684 -18.127283 4.471636 15.885383 -1.914167 -0.349114 -0.729267 -1.159454 12.766077 -11.984232 0.525900 -4.647400 -12.905600 6.236692 -12.173783 22.315215 -0.567292 -1.592571 0.747202 -0.393276 2.432123 -12.062978 -0.083600 -1.864800 5.132100 -0.061476 2.460756 -2.287660 -2.011759 1.071160 2.730827 4.360846 2.237846 8.510588 -1.308400 1.365700 10.755400 -90.702399 -1.244126 42.310723 10.247265 -19.041398 -1.929207 -0.102197 0.700264 13.169302 -7.125000 0.000000 0.000000 90.157577 -2.604543 40.918427 -17.889218 32.421290 -4.544560 0.493578 -2.870770 3.703871 7.125000 0.000000 0.000000 
-29.671501 17.469584 1.742415 51.032508 84.026129 45.050864 -18.125301 4.956338 15.621599 -1.891064 -0.287704 -0.605133 -1.103119 12.333672 -11.681576 0.556200 -4.777000 -13.273700 5.911382 -12.318875 22.295198 -0.564939 -1.601439 0.796113 -0.392022 2.616873 -11.977436 -0.087300 -1.906000 5.246000 -0.072419 2.438000 -2.277221 -1.984846 1.062442 2.783958 4.310121 2.252935 8.538474 -1.338900 1.368100 10.775700 -90.746263 -1.316170 42.252039 10.219845 -19.004557 -1.920932 -0.097728 0.701220 13.206471 -7.125000 0.000000 0.000000 90.127776 -2.549289 40.963802 -17.876503 32.404850 -4.537267 0.495981 -2.867959 3.679340 7.125000 0.000000 0.000000 
-29.670989 17.467947 1.743029 50.163839 84.179146 44.162902 -18.069793 4.581160 15.925455 -1.907459 -0.383822 -0.819819 -1.157937 12.733072 -11.855852 0.530700 -4.668300 -12.964900 6.391234 -11.991792 22.408795 -0.567705 -1.570544 0.697279 -0.396666 2.250103 -12.171099 -0.096600 -2.004700 5.518600 -0.040108 2.403100 -2.258043 -1.950982 1.032187 2.866435 4.258103 2.290255 8.561850 -1.367700 1.378800 10.812900 -90.805094 -1.337270 42.376093 10.222098 -19.012139 -1.920659 -0.118647 0.699180 13.463762 -7.125000 0.000000 0.000000 90.075182 -2.432899 41.005557 -17.822369 32.340022 -4.514158 0.493343 -2.861970 3.764724 7.125000 0.000000 0.000000 
-29.670989 17.466002 1.744359 49.826818 84.207123 43.841073 -18.190477 4.149590 16.167344 -1.929756 -0.451644 -0.984498 -1.207775 13.129060 -12.138996 0.490500 -4.490800 -12.461600 6.664243 -11.678184 22.455461 -0.570768 -1.554366 0.666736 -0.400819 1.972157 -12.339113 -0.116900 -2.204700 6.071800 -0.027898 2.384471 -2.244200 -1.909225 1.014865 2.940471 4.292014 2.336897 8.547219 -1.338800 1.399500 10.812000 -90.781194 -1.234839 43.009008 10.241139 -19.040920 -1.923296 -0.164766 0.708346 14.083266 -7.125000 0.000000 0.000000 90.036207 -2.360091 41.019527 -17.802038 32.315791 -4.505149 0.494798 -2.857869 3.976720 7.125000 0.000000 0.000000 
-29.670887 17.466309 1.745792 49.999185 84.147791 44.009839 -18.026610 4.660202 15.896818 -1.903147 -0.385674 -0.822452 -1.140647 12.627935 -11.899337 0.511500 -4.584400 -12.726900 6.372921 -12.008621 22.336524 -0.569313 -1.585814 0.736694 -0.396920 2.317920 -12.161482 -0.097700 -2.015800 5.549300 -0.035189 2.409244 -2.247830 -1.891753 1.028481 2.919825 4.324481 2.321385 8.557473 -1.321600 1.397300 10.809600 -90.823259 -1.343417 42.349089 10.212390 -19.004419 -1.918323 -0.118126 0.703187 13.408693 -7.125000 0.000000 0.000000 90.038092 -2.431727 40.880551 -17.809854 32.320938 -4.506796 0.502351 -2.854417 4.137350 7.125000 0.000000 0.000000 
-29.670272 17.465695 1.745996 49.456397 84.259646 43.416935 -17.840744 4.733845 15.984050 -1.894838 -0.417876 -0.875216 -1.114762 12.460255 -11.954357 0.421100 -4.164900 -11.541100 6.389685 -12.268233 22.340403 -0.567484 -1.582422 0.677792 -0.394547 2.487153 -12.073970 -0.072900 -1.742300 4.793900 -0.030911 2.420704 -2.255818 -1.955312 1.035579 2.860951 4.319878 2.274441 8.598571 -1.333000 1.382100 10.831000 -90.791157 -1.327714 42.231496 10.217855 -19.007327 -1.920442 -0.102978 0.700218 13.157262 -7.125000 0.000000 0.000000 90.047774 -2.547556 40.887205 -17.862763 32.373775 -4.520672 0.502525 -2.848643 3.945896 7.125000 0.000000 0.000000 
-29.671194 17.466514 1.743643 50.326039 84.162667 44.311025 -18.255484 4.177255 16.254766 -1.927718 -0.489072 -1.085095 -1.163814 12.913630 -12.372721 0.322900 -3.652500 -10.101000 6.167613 -12.277302 22.360373 -0.565396 -1.574669 0.690064 -0.396858 2.518875 -12.093525 -0.091300 -1.948600 5.363600 -0.054501 2.434580 -2.261029 -1.984796 1.049957 2.862258 4.368475 2.231254 8.620043 -1.309500 1.370500 10.854900 -90.739025 -1.331020 42.348334 10.222726 -19.008711 -1.921044 -0.105302 0.699490 13.084764 -7.125000 0.000000 0.000000 90.064384 -2.556611 40.982830 -17.901270 32.417039 -4.530970 0.486247 -2.842117 3.795472 7.125000 0.000000 0.000000 
-29.671705 17.468458 1.741698 51.454069 83.957314 45.508146 -18.626448 4.018069 16.200995 -1.943576 -0.471767 -1.089691 -1.185722 13.112625 -12.498758 0.339000 -3.741400 -10.350300 5.738096 -12.379487 22.232171 -0.564655 -1.611798 0.839864 -0.394541 2.738680 -11.990521 -0.110700 -2.145300 5.907300 -0.090241 2.457156 -2.275329 -2.006368 1.072399 2.842938 4.414401 2.202940 8.611936 -1.291100 1.365600 10.840600 -90.686485 -1.310739 42.411315 10.212661 -18.992141 -1.917447 -0.105303 0.699657 13.024463 -7.125000 0.000000 0.000000 90.139483 -2.568162 40.869648 -17.857675 32.382756 -4.519890 0.479141 -2.846391 4.022468 7.125000 0.000000 0.000000 
